<svg xmlns="http://www.w3.org/2000/svg"  viewBox="0 0 64 64" width="512px" height="512px"><rect width="34" height="62" x="11" y="1" fill="#acb7d0" rx="6" ry="6"/><path fill="#acb7d0" d="M11,53H45a0,0,0,0,1,0,0v4a6,6,0,0,1-6,6H17a6,6,0,0,1-6-6V53a0,0,0,0,1,0,0Z"/><path fill="#c5e4fa" d="M11 9H45V53H11z"/><path fill="#e3f2ff" d="M27 53L45.38 34.63 45 20 12 53 27 53zM11 50L45 16 45 10 11 44 11 50zM11 40L42 9 37 9 11 35 11 40z"/><path fill="#fff8f8" d="M18.5 13L19.74 15.26 22 16.5 19.74 17.74 18.5 20 17.26 17.74 15 16.5 17.26 15.26 18.5 13zM26.42 26.16L27.27 27.73 28.84 28.58 27.27 29.44 26.42 31 25.56 29.44 24 28.58 25.56 27.73 26.42 26.16zM17.65 36.7L18.23 37.77 19.3 38.35 18.23 38.94 17.65 40 17.07 38.94 16 38.35 17.07 37.77 17.65 36.7z"/><path fill="#ed7899" d="M55.51,29a1,1,0,0,1,1,1v1.56C56.5,41.39,50,48,40.25,48A17.11,17.11,0,0,1,23,31.06,17.11,17.11,0,0,1,40.25,14.12a17.44,17.44,0,0,1,10.45,3.46,1,1,0,0,1,.17,1.48L47.8,22.53a1,1,0,0,1-1.3.17,10.68,10.68,0,0,0-6.25-2,10.38,10.38,0,1,0,0,20.75c4.87,0,8.07-2.3,9.16-6.44H42a1,1,0,0,1-1-1V30a1,1,0,0,1,1-1Z"/><path fill="#f9e3ae" d="M55.51,29a1,1,0,0,1,1,1v1.56C56.5,41.39,50,48,40.25,48A17.11,17.11,0,0,1,23,31.06c0-3.76,1.69-7,3.38-10.06.07-.14,4.76,3.77,4.62,4a10.9,10.9,0,0,0-1.32,6.06A10.48,10.48,0,0,0,40.25,41.44c4.87,0,8.07-2.3,9.16-6.44H42a1,1,0,0,1-1-1V30a1,1,0,0,1,1-1Z"/><path fill="#72caaf" d="M55.51,29a1,1,0,0,1,1,1v1.56C56.5,41.39,50,48,40.25,48A17.31,17.31,0,0,1,25,39c-.63-1.16,1.07-1.23,2.5-2.08s2.71-2.51,3-1.89a10.58,10.58,0,0,0,9.77,6.44c4.87,0,8.07-2.3,9.16-6.44H42a1,1,0,0,1-1-1V30a1,1,0,0,1,1-1Z"/><path fill="#85cbf8" d="M55.51,29a1,1,0,0,1,1,1v1.56a16.67,16.67,0,0,1-4.18,11.59c-1.43,1.54-1.8-.31-3-1.52s-3.09-1.79-2.28-2.56A8.47,8.47,0,0,0,49.41,35H42a1,1,0,0,1-1-1V30a1,1,0,0,1,1-1Z"/><path fill="#8d6c9f" d="M17 44a1 1 0 0 0-1 1v2a1 1 0 0 0 2 0V45A1 1 0 0 0 17 44zM22 44a1 1 0 0 0-1 1v2a1 1 0 0 0 2 0V45A1 1 0 0 0 22 44zM27 44a1 1 0 0 0-1 1v2a1 1 0 0 0 2 0V45A1 1 0 0 0 27 44zM28 56A2 2 0 1 0 28 60 2 2 0 1 0 28 56zM29 6h4a1 1 0 0 0 0-2H29a1 1 0 0 0 0 2zM23 6h2a1 1 0 0 0 0-2H23a1 1 0 0 0 0 2z"/><path fill="#8d6c9f" d="M55.51,28H46V23.56a2,2,0,0,0,2.54-.37l3.07-3.46a2,2,0,0,0,.49-1.52,2,2,0,0,0-.81-1.42A18.36,18.36,0,0,0,46,14s0,0,0,0V7a7,7,0,0,0-7-7H17a7,7,0,0,0-7,7V57a7,7,0,0,0,7,7H39a7,7,0,0,0,7-7V48.17C53.06,46,57.5,39.9,57.5,31.56V30A2,2,0,0,0,55.51,28ZM42,36h6c-1.25,2.91-3.91,4.44-7.77,4.44a9.38,9.38,0,1,1,0-18.75,9.68,9.68,0,0,1,3.75.75V28H42a2,2,0,0,0-2,2v4A2,2,0,0,0,42,36ZM40.25,47a16.3,16.3,0,0,1-14-7.92L30,36.26a11.59,11.59,0,0,0,10.27,6.17,11.23,11.23,0,0,0,6.57-1.84l3.52,3A15.48,15.48,0,0,1,40.25,47Zm-14-24L30,25.8a11.14,11.14,0,0,0-.82,8.56l-3.89,2.92a15.58,15.58,0,0,1,1-14.29Zm20.82-1.11a11.67,11.67,0,0,0-16,2.24l-3.7-2.78a16.32,16.32,0,0,1,12.85-6.22,16.54,16.54,0,0,1,9.87,3.28ZM17,2H39a5,5,0,0,1,5,5V8H12V7A5,5,0,0,1,17,2ZM39,62H17a5,5,0,0,1-5-5V54H44v3A5,5,0,0,1,39,62Zm5-10H12V48a1,1,0,0,0,1-1V45a1,1,0,0,0-1-1V10H44v3.53a18.43,18.43,0,0,0-3.75-.4A18.12,18.12,0,0,0,22,31.06,17.88,17.88,0,0,0,31,46.5V47a1,1,0,0,0,1.88.46A18.39,18.39,0,0,0,40.25,49,20.85,20.85,0,0,0,44,48.67ZM55.5,31.56a15.72,15.72,0,0,1-3.73,10.65l-3.46-3a9.73,9.73,0,0,0,2.06-4,1,1,0,0,0-1-1.25H42V30H55.51Z"/></svg>